<?xml version="1.0" encoding="UTF-8"?>
<svg width="24px" height="24px" viewBox="0 0 24 24" version="1.1" xmlns="http://www.w3.org/2000/svg" xmlns:xlink="http://www.w3.org/1999/xlink">
    <!-- Generator: Sketch 51 (57462) - http://www.bohemiancoding.com/sketch -->
    <title>Slice</title>
    <desc>Created with Sketch.</desc>
    <defs>
        <path d="M8,18 C6.9,18 6.01,18.9 6.01,20 C6.01,21.1 6.9,22 8,22 C9.1,22 10,21.1 10,20 C10,18.9 9.1,18 8,18 Z M18,18 C16.9,18 16.01,18.9 16.01,20 C16.01,21.1 16.9,22 18,22 C19.1,22 20,21.1 20,20 C20,18.9 19.1,18 18,18 Z M15,4 L18,4 L18,7 L16,7 L16,10 L13,10 L13,9 L10,9 L10,6 L8,6 L8,3 L11,3 L11,6 L12,6 L12,3 L15,3 L15,4 Z M15,6 L13,6 L13,7 L15,7 L15,6 Z M9.1,13 L8,15 L20,15 L20,17 L8,17 C6.48,17 5.52,15.37 6.25,14.03 L7.6,11.59 L4,4 L2,4 L2,2 L5.27,2 L6.24587704,4.06171206 L9.53,11 L16.55,11 L20.42,4 L22.16,4.96 L18.3,11.97 C17.96,12.59 17.3,13 16.55,13 L9.1,13 Z" id="path-1"></path>
    </defs>
    <g id="Symbols" stroke="none" stroke-width="1" fill="none" fill-rule="evenodd">
        <g id="icons/cartfill">
            <polygon id="Shape" points="0 0 24 0 24 24 0 24"></polygon>
            <mask id="mask-2" fill="white">
                <use xlink:href="#path-1"></use>
            </mask>
            <use id="Shape" fill="#FFFFFF" fill-rule="nonzero" xlink:href="#path-1"></use>
            <g id="colors/black" mask="url(#mask-2)" fill="#424242">
                <rect x="0" y="0" width="24" height="24"></rect>
            </g>
        </g>
    </g>
</svg>